<?xml version="1.0" encoding="UTF-8" standalone="no"?>
<!DOCTYPE svg PUBLIC "-//W3C//DTD SVG 1.1//EN" "http://www.w3.org/Graphics/SVG/1.1/DTD/svg11.dtd">
<svg xmlns="http://www.w3.org/2000/svg" version="1.1" viewBox="0.00 0.00 512.00 512.00">
<path stroke="#997927" stroke-width="2.00" fill="none" stroke-linecap="butt" vector-effect="non-scaling-stroke" d="
  M 266.18 252.17
  C 262.63 255.90 256.05 255.59 252.55 251.69
  Q 213.75 208.48 175.07 165.41
  A 0.87 0.87 0.0 0 0 174.42 165.12
  L 127.54 165.13
  Q 126.84 165.13 127.33 165.62
  L 259.40 299.55
  A 0.40 0.40 0.0 0 0 259.97 299.55
  L 391.98 165.50
  A 0.29 0.29 0.0 0 0 391.77 165.00
  L 200.28 165.00
  A 0.23 0.23 0.0 0 0 200.11 165.38
  Q 231.93 200.80 263.74 236.27
  C 268.29 241.34 271.50 246.58 266.18 252.17"
/>
<path fill="#332819" d="
  M 47.01 0.00
  L 48.31 0.00
  Q 52.29 0.85 54.71 3.54
  Q 95.88 49.37 136.95 95.09
  A 0.61 0.60 -20.9 0 0 137.40 95.29
  Q 300.52 95.29 463.05 95.29
  C 470.73 95.29 477.92 102.21 473.04 109.98
  Q 472.30 111.15 470.18 113.29
  Q 369.65 214.87 269.16 316.19
  A 0.82 0.79 -23.3 0 0 268.92 316.76
  L 268.92 492.76
  A 0.38 0.37 -0.0 0 0 269.30 493.13
  Q 285.25 493.10 301.27 493.14
  Q 305.87 493.16 307.64 493.80
  C 315.27 496.56 315.53 508.01 308.02 510.93
  Q 306.02 511.71 301.35 511.71
  Q 258.05 511.77 214.75 511.71
  Q 212.29 511.71 209.98 510.20
  C 201.64 504.76 206.21 493.11 215.75 493.15
  Q 232.74 493.22 249.73 493.07
  Q 250.29 493.07 250.29 492.51
  L 250.29 316.99
  A 1.33 1.33 0.0 0 0 249.90 316.05
  Q 148.66 213.68 47.48 111.28
  C 41.30 105.03 46.30 95.21 54.76 95.26
  Q 83.08 95.43 111.41 95.23
  Q 112.05 95.23 111.62 94.75
  Q 76.26 55.26 40.82 15.95
  C 35.07 9.57 38.99 1.44 47.01 0.00
  Z
  M 129.00 114.04
  A 0.34 0.34 0.0 0 0 128.75 113.93
  L 77.07 113.93
  A 0.34 0.34 0.0 0 0 76.83 114.51
  L 108.32 146.42
  A 0.34 0.34 0.0 0 0 108.56 146.52
  L 157.39 146.52
  A 0.34 0.34 0.0 0 0 157.64 145.95
  L 129.00 114.04
  Z
  M 410.61 146.52
  A 0.32 0.32 0.0 0 0 410.83 146.43
  L 442.49 114.48
  A 0.32 0.32 0.0 0 0 442.26 113.93
  L 154.79 113.93
  A 0.32 0.32 0.0 0 0 154.56 114.46
  L 183.08 146.41
  A 0.32 0.32 0.0 0 0 183.32 146.52
  L 410.61 146.52
  Z
  M 266.18 252.17
  C 262.63 255.90 256.05 255.59 252.55 251.69
  Q 213.75 208.48 175.07 165.41
  A 0.87 0.87 0.0 0 0 174.42 165.12
  L 127.54 165.13
  Q 126.84 165.13 127.33 165.62
  L 259.40 299.55
  A 0.40 0.40 0.0 0 0 259.97 299.55
  L 391.98 165.50
  A 0.29 0.29 0.0 0 0 391.77 165.00
  L 200.28 165.00
  A 0.23 0.23 0.0 0 0 200.11 165.38
  Q 231.93 200.80 263.74 236.27
  C 268.29 241.34 271.50 246.58 266.18 252.17
  Z"
/>
<path fill="#ffca35" d="
  M 252.55 251.69
  C 256.05 255.59 262.63 255.90 266.18 252.17
  C 271.50 246.58 268.29 241.34 263.74 236.27
  Q 231.93 200.80 200.11 165.38
  A 0.23 0.23 0.0 0 1 200.28 165.00
  L 391.77 165.00
  A 0.29 0.29 0.0 0 1 391.98 165.50
  L 259.97 299.55
  A 0.40 0.40 0.0 0 1 259.40 299.55
  L 127.33 165.62
  Q 126.84 165.13 127.54 165.13
  L 174.42 165.12
  A 0.87 0.87 0.0 0 1 175.07 165.41
  Q 213.75 208.48 252.55 251.69
  Z"
/>
</svg>
